# xmcd
#
# Track frame offsets:
#	150
#	14584
#	28952
#	42305
#	55927
#	69976
#	84552
#	98984
#	114713
#	129995
#	142838
#	157234
#	171770
#	185702
#	199556
#	212654
#	225550
#	238883
#	252331
#	267133
#	281494
#	295455
#	310284
#	324516
#	339299
#
# Disc length: 4705 seconds
# Revision: 1
# Processed by: cddbd v1.5.2PL0 Copyright (c) Steve Scherf et al.
# Submitted via: dBpowerAMP V12.0
#
DISCID=77125f19
DTITLE=Various Artist - Let Me Tell You About The Blues - Memphis
DYEAR=1927
DGENRE=Blues
TTITLE0=Memphis Jug Band - Sun Brimmer's Blues
TTITLE1=Banjo Joe (Gus Cannon) - Poor Boy, Long Ways From Home
TTITLE2=Lewis Black - Corn Liquor Blues
TTITLE3=Pearl Dickson - Little Rock Blues
TTITLE4=Cannon's Jug Stompers - Springdale Blues
TTITLE5=Frank Stokes - Downtown Blues
TTITLE6=Tommy Johnson - Big Road Blues
TTITLE7=Ishman Bracey - Saturday Blues
TTITLE8=Mississippi John Hurt - Frankie
TTITLE9=Lonnie Johnson - Away Down In The Alley Blues
TTITLE10=Tom Dickson - Death Bell Blues
TTITLE11=Jim Jackson - I'm Wild About My Lovin'
TTITLE12=Furry Lewis - Cannon Ball Blues
TTITLE13=Charlie McCoy - Last Time Blues
TTITLE14=Robert Wilkins - That's No Way To Get Along
TTITLE15=Garfield Akers - Cottonfield Blues - Part 1
TTITLE16=Sleepy John Estes - The Girl I Love, She Got Long Curly Hair
TTITLE17=Kid Bailey - Rowdy Blues
TTITLE18=Noah Lewis - Chickasaw Special
TTITLE19=Joe Callicot - Fare Thee Well Blues
TTITLE20=Jim Thompkins - Bedside Blues
TTITLE21=Memphis Minnie - Bumble Bee
TTITLE22=Bukka White - The Panama Limited
TTITLE23=Blind Willie Reynolds - Married Man Blues
TTITLE24=Allen Shaw - Moanin' The Blues
EXTD=
EXTT0=
EXTT1=
EXTT2=
EXTT3=
EXTT4=
EXTT5=
EXTT6=
EXTT7=
EXTT8=
EXTT9=
EXTT10=
EXTT11=
EXTT12=
EXTT13=
EXTT14=
EXTT15=
EXTT16=
EXTT17=
EXTT18=
EXTT19=
EXTT20=
EXTT21=
EXTT22=
EXTT23=
EXTT24=
PLAYORDER=
